<svg viewBox="0 0 1132 804" width="1132" xmlns:ev="http://www.w3.org/2001/xml-events" height="804" xmlns="http://www.w3.org/2000/svg" xmlns:xlink="http://www.w3.org/1999/xlink"><defs/><g id="page3" transform="translate(5.5,5.5)"><rect width="1123" y="0" fill="none" x="0" height="794"/><g id="group1" transform="translate(1.879789,62.138555)"><path d="M108.2,1087.2C105.6,1087.2,103.1,1085.0,101.2,1081.1L68.8,1012.3L68.8,1066.3C68.8,1077.9,64.4,1087.2,59.0,1087.2C53.6,1087.2,49.2,1077.9,49.2,1066.3L49.2,1012.3L16.8,1081.1C14.0,1087.1,9.7,1088.9,6.1,1085.7C2.4,1082.4,.0,1074.8,.0,1066.3L.0,857.3C.0,851.7,1.0,846.4,2.9,842.5L49.2,744.1L49.2,71.4L16.8,140.2C12.9,148.4,6.7,148.4,2.9,140.2C-1.0,132.1,-1.0,118.8,2.9,110.7L52.1,6.1C53.7,2.6,56.0,.4,58.4,.0L58.4,.0C59.0,.0,59.6,.0,60.2,.2L60.3,.2C62.4,.8,64.5,2.9,66.0,6.2L115.1,110.7C119.0,118.8,119.0,132.1,115.1,140.2C111.3,148.4,105.1,148.4,101.2,140.2L68.8,71.4L68.8,744.1L115.1,842.5C117.0,846.4,118.0,851.7,118.0,857.3L118.0,1066.3C118.0,1071.9,117.0,1077.2,115.1,1081.1C113.3,1085.1,110.8,1087.3,108.2,1087.2zM68.8,953.1L98.4,1015.9L98.4,865.9L68.8,803.2L68.8,953.1zM19.7,865.9L19.7,1015.9L49.2,953.1L49.2,803.2L19.7,865.9z" fill-rule="nonzero" fill="#000000" stroke-width="0.33333298563957214" stroke="#000000" id="shape2" transform="matrix(-0.223250,-0.974761,0.974761,-0.223250,49.508482,516.373413)"/><g id="group3" transform="translate(224.521356,0.000000)"><path d="M.0,138.4C.0,94.8,28.9,58.0,68.7,45.7L68.7,.0L124.6,.0L124.6,44.3C127.9,45.4,130.8,46.7,133.2,48.1C168.9,62.0,194.3,96.3,195.2,136.5L139.4,136.5C138.4,114.4,120.0,96.8,97.6,96.8C74.4,96.8,55.7,115.4,55.7,138.4C55.7,154.2,66.8,165.4,73.0,168.9C79.1,172.5,85.3,172.5,122.2,178.6C159.1,184.7,196.0,221.4,195.2,269.9C194.4,309.9,165.1,349.9,124.6,362.6L124.6,404.1L68.7,404.1L68.7,362.5C28.9,350.2,.0,313.4,.0,269.9C.0,269.9,.0,269.6,.0,269.5L55.7,269.5C55.7,269.6,55.7,269.9,55.7,269.9C55.7,292.8,74.4,311.5,97.6,311.5C120.7,311.5,139.4,292.8,139.4,269.9C140.1,257.6,134.0,246.9,126.3,239.2C118.6,231.6,104.2,230.6,94.5,229.0C41.3,220.7,.0,191.9,.0,138.4z" fill-rule="nonzero" fill="#595757" stroke-width="1" stroke="#595757" id="shape4" transform="translate(221.776343,137.304195)"/><g id="group5"><g id="group6"><path d="M.0,339.3C.0,151.9,143.0,.0,319.4,.0C446.8,.0,556.7,79.2,608.0,193.8L537.8,193.8C492.2,116.7,411.4,65.5,319.4,65.5C177.0,65.5,61.6,188.1,61.6,339.3C61.6,339.3,61.6,340.5,61.6,341.0L.0,341.0C.0,340.5,.0,339.3,.0,339.3zM30.8,484.8C82.0,599.4,192.0,678.7,319.4,678.7C495.8,678.7,638.8,526.7,638.8,339.3C638.8,339.3,638.8,338.2,638.8,337.7L577.1,337.7C577.1,338.2,577.1,339.3,577.1,339.3C577.1,490.6,461.7,613.2,319.4,613.2C227.3,613.2,146.6,562.0,101.0,484.8L30.8,484.8z" fill-rule="nonzero" fill="#02328c" stroke-width="2" stroke="#512374" id="shape7"/><path d="M124.5,.0C131.7,.0,137.5,6.2,137.5,13.8L137.5,132.3C137.5,139.9,131.7,146.1,124.5,146.1L13.0,146.1C5.8,146.1,.0,139.9,.0,132.3L124.5,.0z" fill-rule="nonzero" fill="#02328c" stroke-width="2" stroke="#512374" id="shape8" transform="translate(468.959922,57.261010)"/><path d="M13.0,146.1C5.8,146.1,.0,139.9,.0,132.3L.0,13.8C.0,6.2,5.8,.0,13.0,.0L124.5,.0C131.7,.0,137.5,6.2,137.5,13.8L13.0,146.1z" fill-rule="nonzero" fill="#02328c" stroke-width="2" stroke="#512374" id="shape9" transform="translate(25.988831,468.406013)"/></g></g></g><path d="M115.5,4.1L115.5,4.0C115.5,1.8,113.7,.0,111.5,.0L4.0,.0C1.8,.0,.0,1.8,.0,4.0L.0,4.1C.0,6.3,1.8,8.1,4.0,8.1L111.5,8.1C113.7,8.1,115.5,6.3,115.5,4.1z" fill-rule="nonzero" fill="#000000" id="shape10" transform="matrix(-0.798636,0.601815,-0.601815,-0.798636,933.103696,206.458428)"/><path d="M83.5,.0L41.8,110.3L.0,220.6L83.5,149.4L167.1,220.6L125.3,110.3L83.5,.0z" fill-rule="nonzero" fill="#000000" stroke-width="1" stroke="#000000" id="shape11" transform="matrix(-0.207912,-0.978148,0.978148,-0.207912,17.327675,549.864726)"/><path d="M115.5,4.1L115.5,4.0C115.5,1.8,113.7,.0,111.5,.0L4.0,.0C1.8,.0,.0,1.8,.0,4.0L.0,4.1C.0,6.3,1.8,8.1,4.0,8.1L111.5,8.1C113.7,8.1,115.5,6.3,115.5,4.1z" fill-rule="nonzero" fill="#000000" stroke-width="1" stroke="#000000" id="shape12" transform="matrix(-0.798636,0.601815,-0.601815,-0.798636,999.641795,186.371753)"/><path d="M113.3,4.5L113.3,3.0C113.3,1.3,112.0,.0,110.3,.0L3.0,.0C1.3,.0,.0,1.3,.0,3.0L.0,4.5C.0,6.2,1.3,7.5,3.0,7.5L110.3,7.5C112.0,7.5,113.3,6.2,113.3,4.5z" fill-rule="nonzero" fill="#000000" stroke-width="1" stroke="#000000" id="shape13" transform="matrix(-0.974370,-0.224951,0.224951,-0.974370,1005.139349,283.427997)"/><path d="M113.3,4.5L113.3,3.0C113.3,1.3,112.0,.0,110.3,.0L3.0,.0C1.3,.0,.0,1.3,.0,3.0L.0,4.5C.0,6.2,1.3,7.5,3.0,7.5L110.3,7.5C112.0,7.5,113.3,6.2,113.3,4.5z" fill-rule="nonzero" fill="#000000" stroke-width="1" stroke="#000000" id="shape14" transform="matrix(-0.974370,-0.224951,0.224951,-0.974370,955.461897,297.221691)"/><path d="M995.3,17.7L995.3,11.0C995.3,4.9,990.4,.0,984.3,.0L11.0,.0C4.9,.0,.0,4.9,.0,11.0L.0,17.7C.0,23.8,4.9,28.7,11.0,28.7L984.3,28.7C990.4,28.7,995.3,23.8,995.3,17.7z" fill-rule="nonzero" fill="#000000" stroke-width="1" stroke="#000000" id="shape15" transform="matrix(-0.974370,0.224951,-0.224951,-0.974370,1113.317228,226.744657)"/></g></g></svg>