<svg height="220" width="197" xmlns:ev="http://www.w3.org/2001/xml-events" viewBox="0 0 197 220" xmlns="http://www.w3.org/2000/svg" xmlns:xlink="http://www.w3.org/1999/xlink">
  <defs/>
  <g transform="translate(5.5,5.5)" id="page1">
    <rect height="210" x="0" width="187" y="0" fill="none"/>
    <g transform="translate(7.724409,2.249872)" id="group1">
      <!-- 盾牌外框 -->
      <path stroke="#00b0f0" stroke-width="1" d="M171.5,12.2C171.5,12.2,130.3,.0,88.3,.0C44.6,.0,.1,12.2,.1,12.2C.1,12.2,-2.1,143.6,15.7,161.4C33.5,179.1,65.8,206.6,85.7,206.6C105.6,206.6,139.1,178.1,155.9,161.3C172.7,144.6,171.5,12.2,171.5,12.2z" fill="#00b0f0" id="shape2" fill-rule="nonzero"/>
      
      <!-- 中间镂空部分（填充浅紫色） -->
      <path d="M132.9,97.8L97.7,97.8L94.8,103.5L94.8,114.8L132.9,114.8L132.9,127.6L94.8,127.6L94.8,153.1L77.7,153.1L77.7,127.6L39.5,127.6L39.5,114.8L77.7,114.8L77.7,103.5L74.9,97.8L39.5,97.8L39.5,85.1L68.8,85.1L43.6,42.8L61.4,42.8L86.7,85.1L111.4,42.8L129.1,42.8L103.6,85.1L132.9,85.1L132.9,97.8z" fill="#D8BFD8" id="shape3" fill-rule="nonzero"/>
    </g>
  </g>
</svg>